<svg width="27" height="27" viewBox="0 0 27 27" fill="none" xmlns="http://www.w3.org/2000/svg">
<path d="M19.2148 2.60596C19.5708 2.60596 19.8609 2.75343 20.1221 2.94971C20.3717 3.1373 20.6477 3.41017 20.9688 3.72607L23.5811 6.29639C23.9119 6.62194 24.1965 6.90168 24.3926 7.15479C24.5975 7.4193 24.7538 7.71398 24.7539 8.07861C24.7539 8.4434 24.5975 8.73882 24.3926 9.00342C24.1965 9.25645 23.9118 9.53542 23.5811 9.86084L9.02832 24.1792C8.85254 24.3521 8.70172 24.5057 8.51172 24.6118C8.32165 24.7179 8.11159 24.7658 7.87207 24.8247L1.92871 26.2866C1.76451 26.327 1.58601 26.3722 1.4375 26.3862C1.28271 26.4008 1.02112 26.3963 0.8125 26.186C0.603911 25.9758 0.601461 25.7147 0.617188 25.5601C0.632293 25.4116 0.679015 25.2329 0.720703 25.0688L2.19922 19.2495C2.26091 19.0067 2.31092 18.7938 2.4209 18.6021C2.53106 18.4102 2.69039 18.2594 2.86914 18.0835L17.4619 3.72607C17.7829 3.4103 18.0581 3.13725 18.3076 2.94971C18.5688 2.75342 18.8589 2.60598 19.2148 2.60596Z" stroke="#222222"/>
<path d="M16.4332 3.22108L18.2208 1.41793C18.8836 0.749415 19.215 0.415158 19.6287 0.413029C20.0424 0.410899 20.3772 0.741727 21.0469 1.40338L25.6272 5.92922C26.2763 6.5706 26.6008 6.89129 26.6104 7.29499C26.6201 7.69869 26.3111 8.03446 25.6933 8.706L24.0437 10.4989C23.3938 11.2053 23.0689 11.5585 22.6491 11.5719C22.2293 11.5852 21.8826 11.2534 21.1891 10.5897L16.4707 6.07411C15.7784 5.41165 15.4323 5.08042 15.4268 4.66106C15.4213 4.2417 15.7586 3.90149 16.4332 3.22108Z" fill="#53B4AF"/>
</svg>
