<svg width="15" height="15" viewBox="0 0 15 15" fill="none" xmlns="http://www.w3.org/2000/svg">
<g clip-path="url(#clip0_6873_1707)">
<path d="M3.77246 4.37402L4.5595 6.99686M8.02061 10.4592L10.6447 11.2462" stroke="white" stroke-width="0.617284" stroke-linecap="round" stroke-linejoin="round"/>
<path d="M7.32324 7.69556L10.8782 4.14062" stroke="white" stroke-width="0.617284" stroke-linecap="round" stroke-linejoin="round"/>
<path d="M2.58008 3.48745C2.58008 3.60904 2.60403 3.72945 2.65056 3.84179C2.69709 3.95412 2.7653 4.0562 2.85128 4.14218C2.93726 4.22816 3.03933 4.29636 3.15167 4.34289C3.26401 4.38943 3.38441 4.41338 3.506 4.41338C3.6276 4.41338 3.748 4.38943 3.86034 4.34289C3.97268 4.29636 4.07475 4.22816 4.16073 4.14218C4.24671 4.0562 4.31492 3.95412 4.36145 3.84179C4.40798 3.72945 4.43193 3.60904 4.43193 3.48745C4.43193 3.36586 4.40798 3.24545 4.36145 3.13311C4.31492 3.02077 4.24671 2.9187 4.16073 2.83272C4.07475 2.74674 3.97268 2.67854 3.86034 2.63201C3.748 2.58547 3.6276 2.56152 3.506 2.56152C3.38441 2.56152 3.26401 2.58547 3.15167 2.63201C3.03933 2.67854 2.93726 2.74674 2.85128 2.83272C2.7653 2.9187 2.69709 3.02077 2.65056 3.13311C2.60403 3.24545 2.58008 3.36586 2.58008 3.48745Z" stroke="white" stroke-width="0.617284" stroke-linecap="round" stroke-linejoin="round"/>
<path d="M10.6055 3.48745C10.6055 3.73302 10.703 3.96853 10.8767 4.14218C11.0503 4.31582 11.2858 4.41338 11.5314 4.41338C11.777 4.41338 12.0125 4.31582 12.1861 4.14218C12.3598 3.96853 12.4573 3.73302 12.4573 3.48745C12.4573 3.24188 12.3598 3.00637 12.1861 2.83272C12.0125 2.65908 11.777 2.56152 11.5314 2.56152C11.2858 2.56152 11.0503 2.65908 10.8767 2.83272C10.703 3.00637 10.6055 3.24188 10.6055 3.48745Z" stroke="white" stroke-width="0.617284" stroke-linecap="round" stroke-linejoin="round"/>
<path d="M10.6055 11.5128C10.6055 11.7584 10.703 11.9939 10.8767 12.1676C11.0503 12.3412 11.2858 12.4388 11.5314 12.4388C11.777 12.4388 12.0125 12.3412 12.1861 12.1676C12.3598 11.9939 12.4573 11.7584 12.4573 11.5128C12.4573 11.2673 12.3598 11.0318 12.1861 10.8581C12.0125 10.6845 11.777 10.5869 11.5314 10.5869C11.2858 10.5869 11.0503 10.6845 10.8767 10.8581C10.703 11.0318 10.6055 11.2673 10.6055 11.5128Z" stroke="white" stroke-width="0.617284" stroke-linecap="round" stroke-linejoin="round"/>
<path d="M2.58008 9.66059C2.58008 10.3973 2.87274 11.1038 3.39367 11.6248C3.9146 12.1457 4.62114 12.4384 5.35786 12.4384C6.09457 12.4384 6.80111 12.1457 7.32204 11.6248C7.84298 11.1038 8.13563 10.3973 8.13563 9.66059C8.13563 8.92388 7.84298 8.21734 7.32204 7.6964C6.80111 7.17547 6.09457 6.88281 5.35786 6.88281C4.62114 6.88281 3.9146 7.17547 3.39367 7.6964C2.87274 8.21734 2.58008 8.92388 2.58008 9.66059Z" stroke="white" stroke-width="0.617284" stroke-linecap="round" stroke-linejoin="round"/>
</g>
<defs>
<clipPath id="clip0_6873_1707">
<rect width="14.8148" height="14.8148" fill="white" transform="translate(0.111328 0.0927734)"/>
</clipPath>
</defs>
</svg>
