<svg width="435" height="106" viewBox="0 0 435 106" fill="none" xmlns="http://www.w3.org/2000/svg">
<path d="M189.3 88V18H194.8V88H189.3ZM143.9 88V18H149.4V88H143.9ZM146.8 54.7V49.4H192.8V54.7H146.8ZM228.852 89C224.186 89 220.052 87.9333 216.452 85.8C212.919 83.6 210.119 80.5667 208.052 76.7C206.052 72.7667 205.052 68.2667 205.052 63.2C205.052 58.0667 206.052 53.5667 208.052 49.7C210.052 45.7667 212.786 42.7333 216.252 40.6C219.786 38.4 223.852 37.3 228.452 37.3C232.986 37.3 236.952 38.4 240.352 40.6C243.752 42.7333 246.419 45.7333 248.352 49.6C250.286 53.4 251.252 57.8 251.252 62.8V63.7L249.852 65.1H208.152V59.8H248.052L245.652 61.1C245.519 57.1 244.652 53.7333 243.052 51C241.519 48.2667 239.486 46.2 236.952 44.8C234.419 43.3333 231.586 42.6 228.452 42.6C225.119 42.6 222.086 43.4333 219.352 45.1C216.686 46.7667 214.552 49.1 212.952 52.1C211.352 55.1 210.552 58.5333 210.552 62.4V63.7C210.552 67.6333 211.319 71.1 212.852 74.1C214.452 77.1 216.619 79.4667 219.352 81.2C222.152 82.8667 225.319 83.7 228.852 83.7C232.519 83.7 235.619 82.8667 238.152 81.2C240.686 79.5333 242.686 77.2333 244.152 74.3H245.252L249.452 76.3C247.652 80.1667 244.986 83.2667 241.452 85.6C237.986 87.8667 233.786 89 228.852 89ZM261.13 88V16L266.33 15.3L266.63 16.1V88H261.13ZM279.896 88V38.4H285.396V88H279.896ZM282.596 26.7C281.396 26.7 280.363 26.3 279.496 25.5C278.629 24.6333 278.196 23.5667 278.196 22.3C278.196 21.0333 278.629 20 279.496 19.2C280.363 18.3333 281.396 17.9 282.596 17.9C283.863 17.9 284.929 18.3333 285.796 19.2C286.663 20 287.096 21.0333 287.096 22.3C287.096 23.5667 286.663 24.6333 285.796 25.5C284.929 26.3 283.863 26.7 282.596 26.7ZM339.185 38.4V88H333.785V74.4L335.685 75.4C334.752 78.2667 333.285 80.7333 331.285 82.8C329.285 84.8 326.952 86.3333 324.285 87.4C321.618 88.4667 318.852 89 315.985 89C312.318 89 309.118 88.2667 306.385 86.8C303.652 85.2667 301.518 83.0333 299.985 80.1C298.452 77.1 297.685 73.4 297.685 69V38.4H303.185V67.9C303.185 71.7 303.752 74.7667 304.885 77.1C306.085 79.4333 307.752 81.1333 309.885 82.2C312.018 83.2 314.418 83.7 317.085 83.7C320.018 83.7 322.718 83 325.185 81.6C327.718 80.2 329.752 78.2 331.285 75.6C332.885 73 333.685 69.9333 333.685 66.4V38.4H339.185ZM352.021 88V38.4H357.421V52.5L355.521 50.8C356.454 47.9333 357.921 45.5 359.921 43.5C361.921 41.5 364.188 39.9667 366.721 38.9C369.321 37.8333 371.921 37.3 374.521 37.3C378.921 37.3 382.654 38.6 385.721 41.2C388.854 43.8 390.821 47.4333 391.621 52.1H389.021C389.821 48.9667 391.221 46.3 393.221 44.1C395.288 41.9 397.688 40.2333 400.421 39.1C403.221 37.9 406.121 37.3 409.121 37.3C412.521 37.3 415.521 38.0667 418.121 39.6C420.788 41.1333 422.854 43.4 424.321 46.4C425.854 49.3333 426.621 52.9667 426.621 57.3V88H421.121V58.4C421.121 54.6 420.521 51.5667 419.321 49.3C418.188 46.9667 416.621 45.3 414.621 44.3C412.688 43.2333 410.454 42.7 407.921 42.7C405.388 42.7 402.888 43.3667 400.421 44.7C398.021 46.0333 396.021 48 394.421 50.6C392.888 53.1333 392.121 56.2667 392.121 60V88H386.621V58.4C386.621 54.6 386.021 51.5667 384.821 49.3C383.688 46.9667 382.121 45.3 380.121 44.3C378.121 43.2333 375.854 42.7 373.321 42.7C370.854 42.7 368.388 43.3667 365.921 44.7C363.521 46.0333 361.521 48 359.921 50.6C358.321 53.1333 357.521 56.2667 357.521 60V88H352.021Z" fill="white"/>
<rect x="29.4546" y="2.45456" width="47.0909" height="101.091" rx="23.5454" stroke="white" stroke-width="4.90912"/>
<rect x="103.545" y="34.4546" width="44.0909" height="101.091" rx="22.0454" transform="rotate(90 103.545 34.4546)" stroke="white" stroke-width="4.90912"/>
</svg>
