<svg width="64" height="64" viewBox="0 0 64 64" fill="none" xmlns="http://www.w3.org/2000/svg">
<path d="M15.9993 26.9984C22.0741 26.9984 26.9986 22.0738 26.9986 15.9991C26.9986 9.92432 22.0741 4.99976 15.9993 4.99976C9.92456 4.99976 5 9.92432 5 15.9991C5 22.0738 9.92456 26.9984 15.9993 26.9984Z" fill="white"/>
<path d="M47.9971 32.002C56.8342 32.002 63.9981 24.8381 63.9981 16.001C63.9981 7.16389 56.8342 0 47.9971 0C39.16 0 31.9961 7.16389 31.9961 16.001C31.9961 24.8381 39.16 32.002 47.9971 32.002Z" fill="white"/>
<path d="M31.996 47.9989C31.996 56.8323 24.8364 63.9939 16.005 63.9939C7.16555 63.9939 0 56.8323 0 47.9989C0 39.1594 7.16555 31.9939 16.005 31.9939C24.8364 31.9959 31.996 39.1614 31.996 47.9989Z" fill="white"/>
<path d="M47.9993 58.9962C54.0741 58.9962 58.9986 54.0716 58.9986 47.9969C58.9986 41.9221 54.0741 36.9976 47.9993 36.9976C41.9246 36.9976 37 41.9221 37 47.9969C37 54.0716 41.9246 58.9962 47.9993 58.9962Z" fill="white"/>
</svg>
